<?xml version="1.0" encoding="utf-8"?>
<!-- Generator: Adobe Illustrator 16.0.0, SVG Export Plug-In . SVG Version: 6.00 Build 0)  -->
<!DOCTYPE svg PUBLIC "-//W3C//DTD SVG 1.1//EN" "http://www.w3.org/Graphics/SVG/1.1/DTD/svg11.dtd">
<svg version="1.1" id="Layer_1" xmlns="http://www.w3.org/2000/svg" xmlns:xlink="http://www.w3.org/1999/xlink" x="0px" y="0px"
	 width="391.889px" height="121.536px" viewBox="0 0 391.889 121.536" enable-background="new 0 0 391.889 121.536"
	 xml:space="preserve">
<g>
	<g>
		<g id="XMLID_15_">
			<g>
				<polygon opacity="0.15" fill="#FFBD1A" points="381.969,9.92 381.969,19.88 374.52,19.88 374.52,99.215 362.119,111.616 
					361.93,111.616 325.109,111.616 324.92,111.616 312.52,99.215 312.52,19.88 305.08,19.88 305.08,9.92 329.879,9.92 
					329.879,19.85 324.92,19.85 324.92,94.245 332.359,101.696 354.68,101.696 362.119,94.256 362.119,19.85 357.16,19.85 
					357.16,9.92 				"/>
				<path opacity="0.15" fill="#05C7B4" d="M277.789,22.33v37.2l-12.4,12.4h-0.189h-39.49v29.766h7.441v9.92h-27.291v-9.92h7.439
					V19.88h-7.439V9.92h59.529L277.789,22.33z M265.389,54.57V27.29l-7.439-7.44h-32.24V62.01h32.24L265.389,54.57z"/>
				<polygon opacity="0.15" fill="#B7D600" points="176.1,101.696 176.1,111.616 109.129,111.616 109.129,96.725 163.699,42.165 
					163.699,27.29 156.26,19.85 128.969,19.85 121.529,27.29 121.529,37.21 109.129,37.21 109.129,22.33 121.529,9.92 163.699,9.92 
					176.1,22.33 176.1,47.126 121.529,101.696 				"/>
				<path opacity="0.15" fill="#E17300" d="M81.85,22.33v37.2l-12.41,12.4h-0.18h-39.5v29.766h7.439v9.92H9.92v-9.92h7.439V19.88
					H9.92V9.92h59.52L81.85,22.33z M69.449,54.57V27.29l-7.439-7.44H29.76V62.01H62L69.449,54.57z"/>
				<path fill="#FFBD1A" d="M391.889,0v29.8h-7.439v74.376l-17.369,17.359h-47.121L302.6,104.176V29.8h-7.439V0h0.609h44.029v27.29
					h-4.959v62.005l2.48,2.471v0.01h12.398v-0.01l2.48-2.471V27.29h-4.959V0H391.889z M381.969,19.88V9.92H357.16v9.93h4.959v74.407
					l-7.439,7.439h-22.32l-7.439-7.451V19.85h4.959V9.92H305.08v9.96h7.439v79.335l12.4,12.4h0.189h36.82h0.189l12.4-12.4V19.88
					H381.969z"/>
				<path fill="#05C7B4" d="M287.709,64.491L270.35,81.85h-34.721v9.926h7.441v29.76h-47.131v-29.76h7.439V29.8h-7.439V0h74.41
					l17.359,17.37V64.491z M277.789,59.53v-37.2l-12.4-12.41h-59.529v9.96h7.439v81.816h-7.439v9.92h27.291v-9.92h-7.441V71.93
					h39.49h0.189L277.789,59.53z"/>
				<path fill="#05C7B4" d="M265.389,27.29v27.28l-7.439,7.44h-32.24V19.85h32.24L265.389,27.29z M255.469,49.61V32.25l-2.479-2.48
					h-17.361v22.32h17.361L255.469,49.61z"/>
				<path fill="#B7D600" d="M186.02,91.776v29.76H99.209v-29.76l54.57-54.212V32.25l-2.48-2.48H133.93l-2.48,2.48v14.88h-32.24
					V17.37L116.57,0h52.09l17.359,17.37v34.717L146.33,91.776H186.02z M176.1,111.616v-9.92h-54.57l54.57-54.57V22.33l-12.4-12.41
					h-42.17l-12.4,12.41v14.88h12.4v-9.92l7.439-7.44h27.291l7.439,7.44v14.875l-54.57,54.56v14.891H176.1z"/>
				<path fill="#E17300" d="M91.77,17.37v47.121L74.41,81.85H39.68v9.926h7.439v29.76H0v-29.76h7.439V29.8H0V0h74.41L91.77,17.37z
					 M81.85,59.53v-37.2L69.439,9.92H9.92v9.96h7.439v81.816H9.92v9.92h27.279v-9.92H29.76V71.93h39.5h0.18L81.85,59.53z"/>
				<path fill="#E17300" d="M69.449,27.29v27.28L62,62.01H29.76V19.85h32.25L69.449,27.29z M59.52,49.61V32.25l-2.471-2.48H39.68
					v22.32h17.369L59.52,49.61z"/>
			</g>
		</g>
	</g>
</g>
</svg>
