<?xml version="1.0" encoding="utf-8"?>
<!-- Generator: Adobe Illustrator 23.0.4, SVG Export Plug-In . SVG Version: 6.00 Build 0)  -->
<svg version="1.1" id="Layer_1" xmlns="http://www.w3.org/2000/svg" xmlns:xlink="http://www.w3.org/1999/xlink" x="0px" y="0px"
	 viewBox="0 0 400 250" style="enable-background:new 0 0 400 250;" xml:space="preserve">
<style type="text/css">
	.st0{fill:#FFBC1A;}
</style>
<title>P2PU Avatars</title>
<circle class="st0" cx="4.8" cy="11.7" r="9.2"/>
<circle class="st0" cx="35.2" cy="11.8" r="8.6"/>
<circle class="st0" cx="65.5" cy="12.2" r="9.2"/>
<circle class="st0" cx="95.2" cy="12.3" r="9"/>
<circle class="st0" cx="124.7" cy="12.4" r="9.1"/>
<circle class="st0" cx="155.4" cy="12.3" r="9"/>
<circle class="st0" cx="185.2" cy="11.8" r="8.9"/>
<circle class="st0" cx="215.4" cy="11.8" r="9.2"/>
<circle class="st0" cx="245.2" cy="11.9" r="7.6"/>
<circle class="st0" cx="275.1" cy="11.7" r="8"/>
<circle class="st0" cx="304.9" cy="12.5" r="9.1"/>
<circle class="st0" cx="335.2" cy="11.6" r="7.2"/>
<circle class="st0" cx="364.8" cy="11.9" r="9.7"/>
<circle class="st0" cx="5.3" cy="44.7" r="8.2"/>
<circle class="st0" cx="34.6" cy="44.8" r="9.3"/>
<circle class="st0" cx="65.3" cy="44.2" r="7.3"/>
<circle class="st0" cx="95.2" cy="44.5" r="8.6"/>
<circle class="st0" cx="125.3" cy="44.9" r="7.9"/>
<circle class="st0" cx="155.2" cy="44.9" r="8.5"/>
<circle class="st0" cx="184.5" cy="44.8" r="9.1"/>
<circle class="st0" cx="214.9" cy="44.6" r="8.6"/>
<circle class="st0" cx="245" cy="44.4" r="8.2"/>
<circle class="st0" cx="274.9" cy="44.6" r="9.1"/>
<circle class="st0" cx="305.4" cy="44.6" r="9.4"/>
<circle class="st0" cx="335.5" cy="44.3" r="7.2"/>
<circle class="st0" cx="365.4" cy="44.5" r="7.2"/>
<circle class="st0" cx="5.5" cy="76.6" r="7.8"/>
<circle class="st0" cx="34.8" cy="77" r="7.8"/>
<circle class="st0" cx="65.1" cy="77" r="9.9"/>
<circle class="st0" cx="94.7" cy="77.1" r="8.8"/>
<circle class="st0" cx="125.4" cy="77.3" r="8"/>
<circle class="st0" cx="155.3" cy="76.5" r="8.9"/>
<circle class="st0" cx="185.1" cy="76.5" r="9.5"/>
<circle class="st0" cx="215.1" cy="77" r="7.6"/>
<circle class="st0" cx="244.9" cy="76.5" r="8.8"/>
<circle class="st0" cx="274.9" cy="77.2" r="9.8"/>
<circle class="st0" cx="304.8" cy="77.1" r="9.4"/>
<circle class="st0" cx="335.1" cy="76.7" r="8.2"/>
<circle class="st0" cx="364.6" cy="77" r="8.3"/>
<circle class="st0" cx="5.4" cy="109.6" r="8.4"/>
<circle class="st0" cx="34.6" cy="110" r="8.5"/>
<circle class="st0" cx="64.6" cy="110" r="8.1"/>
<circle class="st0" cx="94.7" cy="109" r="7.3"/>
<circle class="st0" cx="125.1" cy="109.5" r="7.2"/>
<circle class="st0" cx="154.7" cy="109.7" r="9.2"/>
<circle class="st0" cx="184.9" cy="109.3" r="8.2"/>
<circle class="st0" cx="214.7" cy="109.1" r="8.5"/>
<circle class="st0" cx="245.3" cy="109.6" r="8"/>
<circle class="st0" cx="274.5" cy="109.2" r="9.1"/>
<circle class="st0" cx="305.2" cy="109.7" r="8.5"/>
<circle class="st0" cx="334.8" cy="109.6" r="8.8"/>
<circle class="st0" cx="364.9" cy="109.5" r="7.7"/>
<circle class="st0" cx="4.7" cy="142.2" r="8.7"/>
<circle class="st0" cx="35" cy="142.1" r="7.9"/>
<circle class="st0" cx="65.4" cy="142.1" r="7.4"/>
<circle class="st0" cx="94.7" cy="142.4" r="7.9"/>
<circle class="st0" cx="124.7" cy="141.6" r="7.4"/>
<circle class="st0" cx="154.6" cy="141.9" r="8.3"/>
<circle class="st0" cx="185.4" cy="142" r="7.1"/>
<circle class="st0" cx="215.5" cy="141.5" r="7.8"/>
<circle class="st0" cx="244.9" cy="141.6" r="7.8"/>
<circle class="st0" cx="275" cy="141.6" r="9.5"/>
<circle class="st0" cx="305.1" cy="142" r="8.2"/>
<circle class="st0" cx="334.7" cy="142.1" r="9.2"/>
<circle class="st0" cx="364.7" cy="141.8" r="7.8"/>
<circle class="st0" cx="5.3" cy="174.8" r="8.2"/>
<circle class="st0" cx="34.6" cy="174.1" r="9.9"/>
<circle class="st0" cx="65.4" cy="174.3" r="8.5"/>
<circle class="st0" cx="95.2" cy="174.3" r="8"/>
<circle class="st0" cx="124.9" cy="174.1" r="10"/>
<circle class="st0" cx="154.8" cy="174.9" r="8.4"/>
<circle class="st0" cx="185.3" cy="174" r="8.4"/>
<circle class="st0" cx="215.1" cy="174.7" r="9"/>
<circle class="st0" cx="245" cy="174.6" r="8.6"/>
<circle class="st0" cx="274.5" cy="174.1" r="8.6"/>
<circle class="st0" cx="304.9" cy="174.9" r="7.3"/>
<circle class="st0" cx="335.2" cy="174.9" r="7.3"/>
<circle class="st0" cx="365.2" cy="174.4" r="7.4"/>
<circle class="st0" cx="5" cy="206.9" r="7.5"/>
<circle class="st0" cx="34.7" cy="206.9" r="7.8"/>
<circle class="st0" cx="65.2" cy="206.9" r="9.8"/>
<circle class="st0" cx="94.6" cy="207" r="9.7"/>
<circle class="st0" cx="124.7" cy="207.4" r="7.9"/>
<circle class="st0" cx="155.1" cy="206.6" r="8.4"/>
<circle class="st0" cx="185" cy="206.7" r="7.7"/>
<circle class="st0" cx="214.9" cy="206.6" r="8.1"/>
<circle class="st0" cx="245.2" cy="206.9" r="9.5"/>
<circle class="st0" cx="275.1" cy="206.6" r="7.9"/>
<circle class="st0" cx="305.1" cy="206.9" r="7.8"/>
<circle class="st0" cx="335.1" cy="206.8" r="8"/>
<circle class="st0" cx="365.2" cy="206.9" r="8.9"/>
<circle class="st0" cx="5.1" cy="239.9" r="9.7"/>
<circle class="st0" cx="34.7" cy="239.3" r="8.1"/>
<circle class="st0" cx="64.8" cy="239.9" r="7.4"/>
<circle class="st0" cx="95.4" cy="239" r="7.5"/>
<circle class="st0" cx="125.2" cy="239.8" r="9.4"/>
<circle class="st0" cx="154.9" cy="239.9" r="8.8"/>
<circle class="st0" cx="185.1" cy="239.4" r="8.2"/>
<circle class="st0" cx="214.5" cy="239.2" r="8.4"/>
<circle class="st0" cx="244.6" cy="239.8" r="7.7"/>
<circle class="st0" cx="275.5" cy="239.6" r="9.9"/>
<circle class="st0" cx="305.4" cy="239" r="9.1"/>
<circle class="st0" cx="335" cy="239.5" r="8.1"/>
<circle class="st0" cx="364.6" cy="239.6" r="9.5"/>
<circle class="st0" cx="394.5" cy="11.8" r="8.5"/>
<circle class="st0" cx="395.5" cy="44.1" r="9.3"/>
<circle class="st0" cx="394.5" cy="77.5" r="7.6"/>
<circle class="st0" cx="394.7" cy="109" r="9"/>
<circle class="st0" cx="395.3" cy="142.1" r="7"/>
<circle class="st0" cx="395.3" cy="174.9" r="7.1"/>
<circle class="st0" cx="395.2" cy="206.8" r="7.4"/>
<circle class="st0" cx="394.7" cy="239.6" r="7.7"/>
</svg>
